
<svg width="114px" height="150px" viewBox="0 0 114 150" version="1.1" xmlns="http://www.w3.org/2000/svg" xmlns:xlink="http://www.w3.org/1999/xlink">
    <g id="Page-1" stroke="none" stroke-width="1" fill="none" fill-rule="evenodd">
        <g id="explicacion_clicker" transform="translate(-130.000000, -389.000000)" fill="#FFFFFF">
            <g id="clicker" transform="translate(52.000000, 126.000000)">
                <path d="M127.389454,270.98832 L127.389454,382.731195 L127.389454,382.731195 L92.8166601,348.158402 C89.5367036,344.878445 84.2188433,344.878445 80.9388867,348.158402 C77.6589301,351.438358 77.6589301,356.756219 80.9388867,360.036175 L132.359725,411.457013 C133.921822,413.019111 136.454482,413.019111 138.016579,411.457013 L189.532228,359.941364 C192.759822,356.71377 192.759822,351.480806 189.532228,348.253212 C186.304634,345.025618 181.07167,345.025618 177.844076,348.253212 L143.366093,382.731195 L143.366093,382.731195 L143.366093,270.98832 C143.366093,266.576492 139.7896,263 135.377773,263 C130.965946,263 127.389454,266.576492 127.389454,270.98832 Z" id="Path-9"></path>
            </g>
        </g>
    </g>
</svg>