
<svg width="8px" height="14px" viewBox="0 0 8 14" version="1.1" xmlns="http://www.w3.org/2000/svg" xmlns:xlink="http://www.w3.org/1999/xlink">
    <defs>
        <path d="M12,13.5857864 L6.70710678,8.29289322 C6.31658249,7.90236893 5.68341751,7.90236893 5.29289322,8.29289322 C4.90236893,8.68341751 4.90236893,9.31658249 5.29289322,9.70710678 L11.2928932,15.7071068 C11.6834175,16.0976311 12.3165825,16.0976311 12.7071068,15.7071068 L18.7071068,9.70710678 C19.0976311,9.31658249 19.0976311,8.68341751 18.7071068,8.29289322 C18.3165825,7.90236893 17.6834175,7.90236893 17.2928932,8.29289322 L12,13.5857864 Z" id="path-1"></path>
    </defs>
    <g id="Page-1" stroke="none" stroke-width="1" fill="none" fill-rule="evenodd">
        <g id="andar_con_correa_finalizada" transform="translate(-23.000000, -61.000000)">
            <rect fill="#6ac3ae" x="0" y="0" width="375" height="805"></rect>
            <g id="Group-2" transform="translate(0.000000, 44.000000)">
                <g id="chevron-down" transform="translate(27.000000, 24.000000) rotate(90.000000) translate(-27.000000, -24.000000) translate(15.000000, 12.000000)">
                    <mask id="mask-2" fill="white">
                        <use xlink:href="#path-1"></use>
                    </mask>
                    <use id="Shape" fill="white" fill-rule="nonzero" xlink:href="#path-1"></use>
                    <g id="COLOR/-black" mask="url(#mask-2)" fill="white" fill-rule="evenodd">
                        <rect id="Rectangle" x="0" y="0" width="24" height="24"></rect>
                    </g>
                </g>
            </g>
        </g>
    </g>
</svg>