
<svg width="31px" height="25px" viewBox="0 0 31 25" version="1.1" xmlns="http://www.w3.org/2000/svg" xmlns:xlink="http://www.w3.org/1999/xlink">
    <g id="Page-1" stroke="none" stroke-width="1" fill="none" fill-rule="evenodd">
        <g id="home" transform="translate(-171.000000, -728.000000)" fill-rule="nonzero" stroke="#FFFFFF" stroke-width="0.960000038">
            <g id="Tab_bar" transform="translate(0.000000, 719.000000)">
                <g id="Group-4">
                    <g id="Group-34" transform="translate(172.000000, 10.000000)">
                        <path d="M14.3265375,9.81333372 C10.1306813,9.81333372 6.74233752,13.2570182 6.74233752,17.5053371 L6.74233752,18.1138227 C6.74233752,20.751694 8.85851247,22.8977787 11.4593342,22.8977787 L17.1956002,22.8977787 C19.796422,22.8977787 21.9125969,20.751694 21.9125969,18.1138227 L21.9125969,17.5053371 C21.9125969,13.2565467 18.5244856,9.81333372 14.3265375,9.81333372 Z" id="Path"></path>
                        <path d="M25.2837657,5.72444467 C23.4247159,5.72444467 21.9125969,7.37531558 21.9125969,9.40444482 C21.9125969,11.433574 23.4249242,13.084445 25.2837657,13.084445 C27.1426072,13.084445 28.6549345,11.433574 28.6549345,9.40444482 C28.6549345,7.37531558 27.1426072,5.72444467 25.2837657,5.72444467 L25.2837657,5.72444467 Z" id="Path"></path>
                        <path d="M18.5414282,7.36000029 C20.400478,7.36000029 21.9125969,5.70912932 21.9125969,3.68000015 C21.9125969,1.65087091 20.4002697,0 18.5414282,0 C16.6825867,0 15.1702594,1.65087091 15.1702594,3.68000015 C15.1702594,5.70935676 16.6825867,7.36000029 18.5414282,7.36000029 L18.5414282,7.36000029 Z" id="Path"></path>
                        <path d="M10.1135063,7.36000029 C11.9723478,7.36000029 13.484675,5.70912932 13.484675,3.68000015 C13.484675,1.65087091 11.9723478,0 10.1135063,0 C8.25466481,0 6.74233752,1.65087091 6.74233752,3.68000015 C6.74233752,5.70912932 8.25445646,7.36000029 10.1135063,7.36000029 Z" id="Path"></path>
                        <path d="M3.37116876,5.72444467 C1.51232724,5.72444467 -2.56107892e-13,7.37531558 -2.56107892e-13,9.40444482 C-2.56107892e-13,11.433574 1.51232724,13.084445 3.37116876,13.084445 C5.23001023,13.084445 6.74233752,11.433574 6.74233752,9.40444482 C6.74233752,7.37531558 5.23021859,5.72444467 3.37116876,5.72444467 Z" id="Path"></path>
                    </g>
                </g>
            </g>
        </g>
    </g>
</svg>