
<svg width="19px" height="24px" viewBox="0 0 19 24" version="1.1" xmlns="http://www.w3.org/2000/svg" xmlns:xlink="http://www.w3.org/1999/xlink">
    <g id="Page-1" stroke="none" stroke-width="1" fill="none" fill-rule="evenodd">
        <g id="home" transform="translate(-290.000000, -728.000000)" fill="#FFFFFF" fill-rule="nonzero">
            <g id="Tab_bar" transform="translate(0.000000, 719.000000)">
                <g id="Group-4">
                    <g id="Group-36" transform="translate(290.000000, 9.000000)">
                        <path d="M9.42857143,12 C12.7423955,12 15.4285714,9.31362554 15.4285714,6 C15.4285714,2.68637446 12.7423955,0 9.42857143,0 C6.11494589,0 3.42857143,2.68637446 3.42857143,6 C3.43115351,9.31263244 6.11593899,11.9974179 9.42857143,12 Z M9.42857143,1.01694915 C12.1806901,1.01694915 14.4116223,3.24788136 14.4116223,6 C14.4116223,8.75211864 12.1806901,10.9830508 9.42857143,10.9830508 C6.67665139,10.9830508 4.44552058,8.75211864 4.44552058,6 C4.45008887,3.24986756 6.67843899,1.02131888 9.42857143,1.01694915 Z" id="Shape"></path>
                        <path d="M9.42857143,13.7142857 C6.88301217,13.7142857 4.51578947,14.7015934 2.75917526,16.4978962 C0.977749011,18.318814 0,20.8045268 0,23.5038266 C0.000775326316,23.7774972 0.222532845,23.9992247 0.496240602,24 L18.3609023,24 C18.6348038,23.9992247 18.8563674,23.7774972 18.8571429,23.5038266 C18.8571429,20.809566 17.8795876,18.318814 16.0981614,16.5027417 C14.3413534,14.7066326 11.9743245,13.7142857 9.42857143,13.7142857 Z M1.00256104,23.0076531 C1.11169522,20.7649879 1.98011627,18.7157528 3.46379815,17.1973846 C5.03199597,15.5947056 7.15090458,14.7116718 9.42372529,14.7116718 C11.696546,14.7116718 13.8154546,15.5947056 15.3834586,17.1973846 C16.8721805,18.7157528 17.7357554,20.7649879 17.8448895,23.0076531 L1.00256104,23.0076531 Z" id="Shape"></path>
                    </g>
                </g>
            </g>
        </g>
    </g>
</svg>