<svg width="29" height="23" viewBox="0 0 29 23" fill="none" xmlns="http://www.w3.org/2000/svg">
<path d="M14.3264 9.81335C10.1305 9.81335 6.74219 13.257 6.74219 17.5054V18.1138C6.74219 20.7517 8.85836 22.8978 11.4592 22.8978H17.1954C19.7963 22.8978 21.9124 20.7517 21.9124 18.1138V17.5054C21.9124 13.2566 18.5243 9.81335 14.3264 9.81335Z" fill="white"/>
<path d="M25.2838 5.72449C23.4247 5.72449 21.9126 7.37536 21.9126 9.40449C21.9126 11.4336 23.4249 13.0845 25.2838 13.0845C27.1426 13.0845 28.6549 11.4336 28.6549 9.40449C28.6549 7.37536 27.1426 5.72449 25.2838 5.72449Z" fill="white"/>
<path d="M18.5416 7.36C20.4006 7.36 21.9127 5.70913 21.9127 3.68C21.9127 1.65087 20.4004 0 18.5416 0C16.6827 0 15.1704 1.65087 15.1704 3.68C15.1704 5.70936 16.6827 7.36 18.5416 7.36Z" fill="white"/>
<path d="M10.1134 7.36C11.9722 7.36 13.4845 5.70913 13.4845 3.68C13.4845 1.65087 11.9722 0 10.1134 0C8.25451 0 6.74219 1.65087 6.74219 3.68C6.74219 5.70913 8.25431 7.36 10.1134 7.36Z" fill="white"/>
<path d="M3.37117 5.72449C1.51233 5.72449 0 7.37536 0 9.40449C0 11.4336 1.51233 13.0845 3.37117 13.0845C5.23001 13.0845 6.74234 11.4336 6.74234 9.40449C6.74234 7.37536 5.23022 5.72449 3.37117 5.72449Z" fill="white"/>
</svg>
                                                                                