
<svg width="18px" height="14px" viewBox="0 0 18 14" version="1.1" xmlns="http://www.w3.org/2000/svg" xmlns:xlink="http://www.w3.org/1999/xlink">
    <g id="Page-1" stroke="none" stroke-width="1" fill="none" fill-rule="evenodd" opacity="0.486839658">
        <g id="andar_con_correa_finalizada" transform="translate(-120.000000, -303.000000)" fill="#FFFFFF" fill-rule="nonzero">
            <g id="Group-6" transform="translate(0.000000, 260.000000)">
                <g id="pata-2" transform="translate(120.000000, 43.000000)">
                    <path d="M8.99941595,5.79831933 C6.36372993,5.79831933 4.23529412,7.74901567 4.23529412,10.1555021 L4.23529412,10.5001826 C4.23529412,11.9944211 5.56459917,13.210084 7.19834193,13.210084 L10.8016581,13.210084 C12.4354008,13.210084 13.7647059,11.9944211 13.7647059,10.5001826 L13.7647059,10.1555021 C13.7647059,7.7487486 11.6364161,5.79831933 8.99941595,5.79831933 Z" id="Path"></path>
                    <path d="M15.8823529,3.68067227 C14.7145647,3.68067227 13.7647059,4.63066189 13.7647059,5.79831933 C13.7647059,6.96597674 14.7146955,7.91596639 15.8823529,7.91596639 C17.0500104,7.91596639 18,6.96597674 18,5.79831933 C18,4.63066189 17.0500104,3.68067227 15.8823529,3.68067227 L15.8823529,3.68067227 Z" id="Path"></path>
                    <path d="M11.6470588,4.7394958 C12.8148471,4.7394958 13.7647059,3.78950615 13.7647059,2.62184874 C13.7647059,1.4541913 12.8147162,0.504201681 11.6470588,0.504201681 C10.4794014,0.504201681 9.52941176,1.4541913 9.52941176,2.62184874 C9.52941176,3.78963703 10.4794014,4.7394958 11.6470588,4.7394958 L11.6470588,4.7394958 Z" id="Path"></path>
                    <path d="M6.35294118,4.7394958 C7.52059862,4.7394958 8.47058824,3.78950615 8.47058824,2.62184874 C8.47058824,1.4541913 7.52059862,0.504201681 6.35294118,0.504201681 C5.18528377,0.504201681 4.23529412,1.4541913 4.23529412,2.62184874 C4.23529412,3.78950615 5.18515289,4.7394958 6.35294118,4.7394958 Z" id="Path"></path>
                    <path d="M2.11764706,3.68067227 C0.949989617,3.68067227 0,4.63066189 0,5.79831933 C0,6.96597674 0.949989617,7.91596639 2.11764706,7.91596639 C3.28530447,7.91596639 4.23529412,6.96597674 4.23529412,5.79831933 C4.23529412,4.63066189 3.28543535,3.68067227 2.11764706,3.68067227 Z" id="Path"></path>
                </g>
            </g>
        </g>
    </g>
</svg>