
<svg width="20px" height="24px" viewBox="0 0 20 24" version="1.1" xmlns="http://www.w3.org/2000/svg" xmlns:xlink="http://www.w3.org/1999/xlink">
    <g id="Page-1" stroke="none" stroke-width="1" fill="none" fill-rule="evenodd">
        <g id="home" transform="translate(-66.000000, -728.000000)" fill="#FFFFFF">
            <g id="Tab_bar" transform="translate(0.000000, 719.000000)">
                <g id="Group-4">
                    <path d="M71.6206897,33 L67,33 C66.4477153,33 66,32.5522847 66,32 L66,17.2577805 C66,16.9577801 66.1346869,16.6736286 66.3669108,16.4837016 L74.8841522,9.51777916 C75.2524642,9.21655099 75.7820185,9.21655099 76.1503306,9.51777916 L84.6675719,16.4837016 C84.8997959,16.6736286 85.0344828,16.9577801 85.0344828,17.2577805 L85.0344828,32 C85.0344828,32.5522847 84.5867675,33 84.0344828,33 L79.4137931,33 C78.8615084,33 78.4137931,32.5522847 78.4137931,32 L78.4137931,26.3793103 L78.4137931,26.3793103 L72.6206897,26.3793103 L72.6206897,32 C72.6206897,32.5522847 72.1729744,33 71.6206897,33 Z" id="Path-3"></path>
                </g>
            </g>
        </g>
    </g>
</svg>