
<svg width="16px" height="12px" viewBox="0 0 16 12" version="1.1" xmlns="http://www.w3.org/2000/svg" xmlns:xlink="http://www.w3.org/1999/xlink">
    <g id="Page-1" stroke="none" stroke-width="1" fill="none" fill-rule="evenodd">
        <g id="andar_con_correa_finalizada" transform="translate(-16.000000, -488.000000)" fill="#6AC3AE" fill-rule="nonzero">
            <g id="Group-8" transform="translate(0.000000, 464.000000)">
                <g id="pata-2" transform="translate(16.000000, 24.000000)">
                    <path d="M7.99948084,4.969988 C5.65664882,4.969988 3.76470588,6.64201343 3.76470588,8.70471613 L3.76470588,9.0001565 C3.76470588,10.2809323 4.94631037,11.3229292 6.39852616,11.3229292 L9.60147384,11.3229292 C11.0536896,11.3229292 12.2352941,10.2809323 12.2352941,9.0001565 L12.2352941,8.70471613 C12.2352941,6.64178451 10.343481,4.969988 7.99948084,4.969988 Z" id="Path"></path>
                    <path d="M14.1176471,3.15486194 C13.079613,3.15486194 12.2352941,3.96913876 12.2352941,4.969988 C12.2352941,5.9708372 13.0797294,6.78511405 14.1176471,6.78511405 C15.1555648,6.78511405 16,5.9708372 16,4.969988 C16,3.96913876 15.1555648,3.15486194 14.1176471,3.15486194 L14.1176471,3.15486194 Z" id="Path"></path>
                    <path d="M10.3529412,4.06242497 C11.3909752,4.06242497 12.2352941,3.24814813 12.2352941,2.24729892 C12.2352941,1.24644968 11.3908589,0.432172869 10.3529412,0.432172869 C9.31502345,0.432172869 8.47058824,1.24644968 8.47058824,2.24729892 C8.47058824,3.24826031 9.31502345,4.06242497 10.3529412,4.06242497 L10.3529412,4.06242497 Z" id="Path"></path>
                    <path d="M5.64705882,4.06242497 C6.68497655,4.06242497 7.52941176,3.24814813 7.52941176,2.24729892 C7.52941176,1.24644968 6.68497655,0.432172869 5.64705882,0.432172869 C4.60914113,0.432172869 3.76470588,1.24644968 3.76470588,2.24729892 C3.76470588,3.24814813 4.60902479,4.06242497 5.64705882,4.06242497 Z" id="Path"></path>
                    <path d="M1.88235294,3.15486194 C0.844435216,3.15486194 0,3.96913876 0,4.969988 C0,5.9708372 0.844435216,6.78511405 1.88235294,6.78511405 C2.92027064,6.78511405 3.76470588,5.9708372 3.76470588,4.969988 C3.76470588,3.96913876 2.92038698,3.15486194 1.88235294,3.15486194 Z" id="Path"></path>
                </g>
            </g>
        </g>
    </g>
</svg>