<svg width="20" height="24" viewBox="0 0 20 24" fill="none" xmlns="http://www.w3.org/2000/svg">
<path d="M13.0138 17.3793V16.7793H12.4138H6.62069H6.02069V17.3793V23C6.02069 23.2209 5.84161 23.4 5.62069 23.4H0.999999C0.779086 23.4 0.6 23.2209 0.6 23V8.25778C0.6 8.13778 0.653875 8.02412 0.746764 7.94815L9.26401 0.982227C9.41133 0.861735 9.62315 0.861735 9.77048 0.982226L18.2877 7.94815C18.3806 8.02412 18.4345 8.13778 18.4345 8.25778V23C18.4345 23.2209 18.2554 23.4 18.0345 23.4H13.4138C13.1929 23.4 13.0138 23.2209 13.0138 23V17.3793Z" stroke="white" stroke-width="1.2"/>
</svg>
